<svg width="40" height="40" viewBox="0 0 40 40" fill="none" xmlns="http://www.w3.org/2000/svg">
<path d="M39.3376 13.8967L20.5876 3.89667C20.4067 3.80037 20.205 3.75 20.0001 3.75C19.7952 3.75 19.5935 3.80037 19.4126 3.89667L0.662598 13.8967C0.462605 14.0033 0.295349 14.1622 0.178723 14.3565C0.0620966 14.5508 0.000488281 14.7732 0.000488281 14.9998C0.000488281 15.2264 0.0620966 15.4488 0.178723 15.6431C0.295349 15.8374 0.462605 15.9963 0.662598 16.1029L5.0001 18.417V25.9826C4.9988 26.5966 5.22477 27.1894 5.63447 27.6467C7.68135 29.9264 12.2673 33.7498 20.0001 33.7498C22.5641 33.771 25.1089 33.3066 27.5001 32.381V37.4998C27.5001 37.8313 27.6318 38.1493 27.8662 38.3837C28.1006 38.6181 28.4186 38.7498 28.7501 38.7498C29.0816 38.7498 29.3996 38.6181 29.634 38.3837C29.8684 38.1493 30.0001 37.8313 30.0001 37.4998V31.1732C31.6301 30.2323 33.1031 29.0424 34.3657 27.6467C34.7754 27.1894 35.0014 26.5966 35.0001 25.9826V18.417L39.3376 16.1029C39.5376 15.9963 39.7048 15.8374 39.8215 15.6431C39.9381 15.4488 39.9997 15.2264 39.9997 14.9998C39.9997 14.7732 39.9381 14.5508 39.8215 14.3565C39.7048 14.1622 39.5376 14.0033 39.3376 13.8967ZM20.0001 31.2498C13.2392 31.2498 9.2626 27.9467 7.5001 25.9826V19.7498L19.4126 26.1029C19.5935 26.1992 19.7952 26.2496 20.0001 26.2496C20.205 26.2496 20.4067 26.1992 20.5876 26.1029L27.5001 22.417V29.6576C25.5313 30.5764 23.0501 31.2498 20.0001 31.2498ZM32.5001 25.9764C31.7508 26.8078 30.9124 27.5545 30.0001 28.2029V21.0826L32.5001 19.7498V25.9764ZM29.3751 18.5842L29.3407 18.5639L20.5907 13.8967C20.2988 13.7476 19.96 13.7191 19.6472 13.8174C19.3345 13.9157 19.0729 14.1329 18.9188 14.4223C18.7648 14.7116 18.7305 15.0499 18.8234 15.3643C18.9164 15.6786 19.1291 15.9439 19.4157 16.1029L26.7188 19.9998L20.0001 23.5826L3.90635 14.9998L20.0001 6.41698L36.0938 14.9998L29.3751 18.5842Z" fill="#1265FE"/>
</svg>
