<svg width="130" height="31" viewBox="0 0 130 31" fill="none" xmlns="http://www.w3.org/2000/svg">
<path d="M73.5614 3.99133L66.4555 25.904H59.819L55.6241 12.5688L51.2416 25.904H44.6052L37.4992 3.99133H43.885L48.2986 17.9844L52.9319 3.99133H58.6294L63.043 18.109L67.6443 3.99133H73.5606H73.5614Z" fill="#00BF53"/>
<path d="M90.0887 18.9232H77.7547C78.2552 20.6446 79.7267 21.6466 81.9184 21.6466C83.5775 21.6466 84.673 21.1771 85.8315 20.1751L88.9621 23.4311C87.3341 25.2467 84.9557 26.1856 81.7308 26.1856C75.6892 26.1856 71.7761 22.4602 71.7761 17.3894C71.7761 12.3187 75.7514 8.65552 81.1049 8.65552C86.1133 8.65552 90.1829 11.8484 90.1829 17.4517C90.1829 17.89 90.1206 18.4537 90.0887 18.9232ZM77.6613 15.7926H84.6107C84.2977 14.0081 82.9827 12.8816 81.136 12.8816C79.2893 12.8816 78.0054 14.0081 77.6613 15.7926Z" fill="#00BF53"/>
<path d="M95.0971 3.99133H101.295V20.9889H111.751V25.904H95.0971V3.99133Z" fill="#00BF53"/>
<path d="M129.906 18.9232H117.572C118.072 20.6446 119.544 21.6466 121.736 21.6466C123.395 21.6466 124.49 21.1771 125.649 20.1751L128.779 23.4311C127.151 25.2467 124.773 26.1856 121.548 26.1856C115.506 26.1856 111.593 22.4602 111.593 17.3894C111.593 12.3187 115.569 8.65552 120.922 8.65552C125.93 8.65552 130 11.8484 130 17.4517C130 17.89 129.938 18.4537 129.906 18.9232ZM117.478 15.7926H124.428C124.115 14.0081 122.8 12.8816 120.953 12.8816C119.106 12.8816 117.822 14.0081 117.478 15.7926Z" fill="#00BF53"/>
<path d="M15.012 10.6474C15.0633 10.6339 15.1087 10.6533 15.1533 10.6752C15.3855 10.7904 16.0123 12.6531 16.2555 13.057C16.9504 14.2088 18.1746 14.1978 19.2052 14.7969C19.3693 14.8919 19.6057 14.9921 19.4399 15.2192C19.3196 15.3841 17.7901 15.9243 17.4695 16.0807C15.8398 16.8783 16.1604 17.8089 15.404 19.123C15.2534 19.3847 15.0599 19.68 14.8294 19.3106C14.3355 18.5206 14.2741 17.3747 13.5405 16.6529C12.8051 15.9285 11.6374 15.862 10.86 15.3404C10.759 15.2731 10.6597 15.2032 10.6294 15.0762C10.6454 14.9996 10.6917 14.9365 10.7556 14.8928C11.2285 14.5748 12.2036 14.3072 12.7656 14.0245C13.3402 13.7359 13.6153 13.4793 13.9342 12.9173C14.1218 12.5867 14.8218 10.6953 15.0103 10.6474H15.012Z" fill="#00BF53"/>
<path d="M15.0633 6.05162C10.0944 6.05162 6.05174 10.0942 6.05174 15.0632C6.05174 16.655 6.46652 18.1517 7.19428 19.4507C7.56026 18.739 8.20304 18.1938 8.98043 17.9549C8.56145 17.0782 8.32672 16.0972 8.32672 15.0623C8.32672 11.3478 11.3488 8.3266 15.0625 8.3266C15.7212 8.3266 16.359 8.42167 16.9614 8.59835C17.1549 7.78225 17.6824 7.09488 18.3908 6.68851C17.3601 6.2771 16.237 6.05078 15.0625 6.05078L15.0633 6.05162ZM22.7102 10.2995C22.4326 11.0811 21.8394 11.7138 21.0847 12.0436C21.5424 12.9523 21.7999 13.9779 21.7999 15.0632C21.7999 18.7777 18.7778 21.7989 15.0641 21.7989C14.2733 21.7989 13.5127 21.6618 12.8068 21.4102C12.647 22.2162 12.1649 22.9061 11.5002 23.3394C12.594 23.8122 13.7988 24.0747 15.0641 24.0747C20.0331 24.0747 24.0757 20.0321 24.0757 15.0632C24.0757 13.3157 23.5759 11.6827 22.7102 10.2987V10.2995Z" fill="#00BF53"/>
<path d="M11.7198 20.8012C11.7198 20.8366 11.719 20.8719 11.7165 20.9072C11.666 21.7831 10.998 22.4923 10.1406 22.6076C10.0607 22.6185 9.9791 22.6236 9.89665 22.6236C8.88957 22.6236 8.07431 21.8075 8.07431 20.8012C8.07431 20.7827 8.07431 20.7642 8.07515 20.7457C8.10123 19.864 8.75327 19.1404 9.60218 19.0024C9.69809 18.9865 9.79653 18.9789 9.89665 18.9789C10.9029 18.9789 11.719 19.795 11.719 20.8012H11.7198Z" fill="#00BF53"/>
<path d="M21.7048 9.29391C21.7048 10.1016 21.1798 10.7864 20.4529 11.0254C20.2737 11.0843 20.0819 11.1162 19.8825 11.1162C18.8754 11.1162 18.0601 10.3001 18.0601 9.29391C18.0601 9.20725 18.066 9.12227 18.0778 9.03982C18.2015 8.1539 18.9621 7.47241 19.8825 7.47241C19.8934 7.47241 19.9043 7.47241 19.9153 7.47241C20.7869 7.48756 21.5096 8.11435 21.6712 8.94223C21.693 9.05665 21.7048 9.17359 21.7048 9.29391Z" fill="#00BF53"/>
<path d="M26.9548 5.81195C26.6855 6.57336 26.1168 7.19259 25.3915 7.53081C26.9371 9.64508 27.8508 12.249 27.8508 15.0625C27.8508 22.1137 22.1145 27.8499 15.0633 27.8499C12.7 27.8499 10.4847 27.2055 8.58332 26.0831C8.36794 26.8588 7.85051 27.5075 7.16398 27.8945C9.51468 29.3475 12.2288 30.1249 15.0625 30.1249C19.0857 30.1249 22.8684 28.5583 25.7138 25.7129C28.5583 22.8684 30.1257 19.0857 30.1257 15.0616C30.1257 11.6677 29.011 8.4445 26.9539 5.81111L26.9548 5.81195ZM15.0633 2.27497C17.3139 2.27497 19.4307 2.8597 21.2698 3.88529C21.5189 3.11463 22.0716 2.48026 22.7868 2.12353C20.4765 0.739534 17.8271 0 15.0633 0C11.04 0 7.25737 1.56657 4.41197 4.41197C1.56741 7.25653 0 11.0392 0 15.0633C0 18.3395 1.03905 21.4549 2.95982 24.0353C3.28879 23.3134 3.89539 22.7455 4.64334 22.4679C3.15249 20.3772 2.27498 17.8204 2.27498 15.0633C2.27498 8.01205 8.01121 2.27582 15.0625 2.27582L15.0633 2.27497Z" fill="#00BF53"/>
<path d="M7.60737 25.3035C7.60737 25.3497 7.60569 25.396 7.60232 25.4414C7.54259 26.2929 6.93766 26.9937 6.13334 27.1965C5.98022 27.2352 5.81953 27.2554 5.65463 27.2554C4.57603 27.2554 3.70272 26.3812 3.70272 25.3035C3.70272 25.1949 3.71114 25.0881 3.72881 24.9838C3.8651 24.155 4.52303 23.503 5.35343 23.3743C5.45102 23.3591 5.55198 23.3516 5.65463 23.3516C6.73322 23.3516 7.60653 24.2257 7.60653 25.3035H7.60737Z" fill="#00BF53"/>
<path d="M26.0781 4.78745V4.80932C26.0781 5.68516 25.5018 6.42637 24.7067 6.67372C24.5233 6.73094 24.3281 6.76122 24.1262 6.76122C23.0476 6.76122 22.1743 5.88708 22.1743 4.80932C22.1743 4.68985 22.1852 4.57375 22.2062 4.46017C22.3577 3.61715 23.0509 2.96259 23.9133 2.8692C23.9831 2.86163 24.0547 2.85742 24.1262 2.85742C25.1972 2.85742 26.0663 3.71895 26.0781 4.78745Z" fill="#00BF53"/>
</svg>
